<?xml version="1.0" encoding="UTF-8" standalone="no"?>
<!-- Created with Inkscape (http://www.inkscape.org/) -->

<svg
   width="512"
   height="512"
   viewBox="0 0 512 512"
   version="1.1"
   id="svg5"
   sodipodi:docname="light-bulb.svg"
   inkscape:version="1.1.1 (3bf5ae0d25, 2021-09-20)"
   xmlns:inkscape="http://www.inkscape.org/namespaces/inkscape"
   xmlns:sodipodi="http://sodipodi.sourceforge.net/DTD/sodipodi-0.dtd"
   xmlns="http://www.w3.org/2000/svg"
   xmlns:svg="http://www.w3.org/2000/svg">
  <sodipodi:namedview
     id="namedview7"
     pagecolor="#505050"
     bordercolor="#eeeeee"
     borderopacity="1"
     inkscape:pageshadow="0"
     inkscape:pageopacity="0"
     inkscape:pagecheckerboard="0"
     inkscape:document-units="px"
     showgrid="false"
     inkscape:snap-bbox="true"
     inkscape:bbox-paths="true"
     inkscape:bbox-nodes="true"
     inkscape:snap-bbox-edge-midpoints="true"
     inkscape:snap-bbox-midpoints="true"
     inkscape:object-paths="true"
     inkscape:snap-intersection-paths="true"
     inkscape:snap-smooth-nodes="true"
     inkscape:snap-midpoints="true"
     inkscape:snap-object-midpoints="true"
     inkscape:snap-center="true"
     inkscape:snap-text-baseline="true"
     inkscape:snap-grids="true"
     inkscape:snap-page="true"
     inkscape:snap-global="false"
     inkscape:zoom="1.1849563"
     inkscape:cx="219.83933"
     inkscape:cy="268.78629"
     inkscape:window-width="1920"
     inkscape:window-height="1017"
     inkscape:window-x="1912"
     inkscape:window-y="-8"
     inkscape:window-maximized="1"
     inkscape:current-layer="layer1" />
  <defs
     id="defs2" />
  <g
     inkscape:label="Layer 1"
     inkscape:groupmode="layer"
     id="layer1">
    <path
       id="circle1832"
       style="fill:#236ef5;fill-opacity:1;stroke-width:33.3354;stroke-linecap:round;stroke-linejoin:round"
       d="m 244.61809,158.87408 -7.31002,19.15896 a 71.462286,71.462286 0 0 0 -12.22913,4.67815 l -18.09847,-9.11478 a 88.575333,88.575333 0 0 0 -20.77518,19.64803 l 8.28491,18.50763 a 71.462286,71.462286 0 0 0 -5.2076,12.14427 l -19.27315,6.36352 a 88.575333,88.575333 0 0 0 -0.60211,28.66787 l 18.94728,7.22645 a 71.462286,71.462286 0 0 0 4.67814,12.22913 l -9.11478,18.09848 a 88.575333,88.575333 0 0 0 19.64803,20.77518 l 18.50762,-8.28491 a 71.462286,71.462286 0 0 0 12.14427,5.2076 l 6.36353,19.27315 a 88.575333,88.575333 0 0 0 28.66788,0.6021 l 7.22644,-18.94727 a 71.462286,71.462286 0 0 0 12.22913,-4.67815 l 18.09847,9.11478 a 88.575333,88.575333 0 0 0 20.7752,-19.64803 l -8.28493,-18.50762 a 71.462286,71.462286 0 0 0 5.20761,-12.14426 l 19.27315,-6.36353 a 88.575333,88.575333 0 0 0 0.60263,-28.66533 l -18.7597,-7.15647 a 71.462286,71.462286 0 0 0 -4.81049,-12.41708 l 9.13888,-18.14873 a 88.575333,88.575333 0 0 0 -19.72333,-20.61311 l -18.53153,8.29786 a 71.462286,71.462286 0 0 0 -12.1799,-5.37846 l -6.37087,-19.29558 a 88.575333,88.575333 0 0 0 -28.52198,-0.62985 z m 3.12312,43.84228 a 44.797776,44.797776 0 0 1 53.00469,34.70327 44.797776,44.797776 0 0 1 -34.70329,53.0047 44.797776,44.797776 0 0 1 -53.00469,-34.70328 44.797776,44.797776 0 0 1 34.70329,-53.00469 z" />
    <path
       style="fill:none;fill-opacity:1;stroke:#236ef5;stroke-width:20.0077;stroke-linecap:round;stroke-linejoin:miter;stroke-miterlimit:4;stroke-dasharray:none;stroke-opacity:1"
       d="m 191.75491,397.57979 c -6.19108,-14.63346 -5.47808,-13.00602 -14.63347,-32.64387 -19.89696,-42.67794 -38.90405,-53.15932 -46.71453,-84.98668 -9.55468,-38.93486 -7.33521,-72.70183 16.32194,-108.06251 23.22583,-34.71597 54.80982,-52.57611 93.99189,-53.46843 43.80806,-0.9977 80.06548,10.56341 110.87665,39.96061 36.24043,34.57731 48.96583,107.4997 14.07064,155.9027 -34.89519,48.40301 -51.76825,74.62267 -51.76825,74.62267 z"
       id="path1908"
       sodipodi:nodetypes="csssssscc" />
    <path
       style="color:#000000;fill:#236ef5;fill-opacity:1;stroke-width:1.33385;-inkscape-stroke:none"
       d="m 318.27637,419.19358 -128.32323,11.81965 4.16599,26.56233 121.00911,-10.13118 z"
       id="path5478"
       sodipodi:nodetypes="ccccc" />
    <path
       style="color:#000000;fill:#236ef5;fill-opacity:1;stroke-width:1.33385;-inkscape-stroke:none"
       d="m 301.95539,474.35058 -93.43063,9.56835 c 0,0 11.48532,12.49168 29.49574,18.11995 0,0 12.94885,3.41664 29.26593,-0.56314 24.2015,-8.44239 34.66896,-27.12516 34.66896,-27.12516 z"
       id="path5900"
       sodipodi:nodetypes="ccccc" />
    <path
       style="fill:none;stroke:#236ef5;stroke-width:26.677;stroke-linecap:round;stroke-linejoin:miter;stroke-miterlimit:4;stroke-dasharray:none;stroke-opacity:1"
       d="m 34.013201,231.81888 36.315982,-0.23313"
       id="path6901"
       sodipodi:nodetypes="cc" />
    <path
       style="fill:none;stroke:#236ef5;stroke-width:26.677;stroke-linecap:round;stroke-linejoin:miter;stroke-miterlimit:4;stroke-dasharray:none;stroke-opacity:1"
       d="M 94.798379,61.282716 120.98348,88.065213"
       id="path7356"
       sodipodi:nodetypes="cc" />
    <path
       style="fill:none;stroke:#236ef5;stroke-width:26.677;stroke-linecap:round;stroke-linejoin:miter;stroke-miterlimit:4;stroke-dasharray:none;stroke-opacity:1"
       d="m 272.93493,64.658368 4.51538,-37.660705"
       id="path7609"
       sodipodi:nodetypes="cc" />
    <path
       style="fill:none;stroke:#236ef5;stroke-width:26.677;stroke-linecap:round;stroke-linejoin:miter;stroke-miterlimit:4;stroke-dasharray:none;stroke-opacity:1"
       d="M 407.16657,118.12812 429.97476,87.502397"
       id="path7611"
       sodipodi:nodetypes="cc" />
    <path
       style="fill:none;stroke:#236ef5;stroke-width:26.677;stroke-linecap:round;stroke-linejoin:miter;stroke-miterlimit:4;stroke-dasharray:none;stroke-opacity:1"
       d="m 443.18742,239.13561 36.31598,-0.23312"
       id="path7613"
       sodipodi:nodetypes="cc" />
  </g>
</svg>
